# xmcd CD database file
#
# Track frame offsets:
#	150
#	14103
#	26678
#	38913
#	54733
#	66699
#	79786
#	94298
#	107573
#	121942
#	137773
#	149557
#	163817
#	178298
#	193297
#	206710
#	220767
#	234866
#	252996
#	266980
#	280767
#
# Disc length: 4012 seconds
#
# Revision: 0
# Processed by: cddbd v1.5.2PL0 Copyright (c) Steve Scherf et al.
# Submitted via: CDex 1.70beta2
#
DISCID=520faa15
DTITLE=Various Artist - Jazz Roads Cd155 - Swing - Jack Teagarden Vol.2 (1935-38)
DYEAR=2006
DGENRE=Jazz
TTITLE0=Wingy Mannone And His Orchestra - Every Now And Then 
TTITLE1=Wingy Mannone And His Orchestra - I've Got A Feeling You're Fooling 
TTITLE2=Wingy Mannone And His Orchestra - You're My Lucky Star 
TTITLE3=Wingy Mannone And His Orchestra - I've Got A Note (1)
TTITLE4=Wingy Mannone And His Orchestra - I've Got A Note (2)
TTITLE5=Frankie Trumbauer And His Orchestra - Flight Of A Haybag
TTITLE6=Frankie Trumbauer And His Orchestra - Breakin' In A New Pair Of Shoes
TTITLE7=Frankie Trumbauer And His Orchestra - Announcer's Blues
TTITLE8=Frankie Trumbauer And His Orchestra - I Hope Gabriel Likes My Music 
TTITLE9=The Three T's - I'se A Muggin', Part 1 
TTITLE10=The Three T's - I'se A Muggin', Part 2
TTITLE11=Frankie Trumbauer And His Orchestra - Somebody Loves Me 
TTITLE12=Frankie Trumbauer And His Orchestra - The Mayor Of Alabam' 
TTITLE13=Frankie Trumbauer And His Orchestra - Ain't Misbehavin' 
TTITLE14=Frankie Trumbauer And His Orchestra - S Wonderful 
TTITLE15=Frankie Trumbauer And His Orchestra - I'm An Old Cowhand 
TTITLE16=Frankie Trumbauer And His Orchestra - Diga Diga Doo 
TTITLE17=Eddie Condon And His Windy City Seven - Embraceable You 
TTITLE18=Eddie Condon And His Windy City Seven - Meet Me Tonight In Dreamland 
TTITLE19=Eddie Condon And His Windy City Seven - Diane 
TTITLE20=Eddie Condon And His Windy City Seven - Serenade To A Shylock 
EXTD=YEAR: 2006
EXTT0=
EXTT1=
EXTT2=
EXTT3=
EXTT4=
EXTT5=
EXTT6=
EXTT7=
EXTT8=
EXTT9=
EXTT10=
EXTT11=
EXTT12=
EXTT13=
EXTT14=
EXTT15=
EXTT16=
EXTT17=
EXTT18=
EXTT19=
EXTT20=
PLAYORDER=
